<?xml version="1.0" encoding="utf-8"?>
<!-- Generator: Adobe Illustrator 25.3.1, SVG Export Plug-In . SVG Version: 6.00 Build 0)  -->
<svg version="1.1" id="Layer_1" xmlns="http://www.w3.org/2000/svg" xmlns:xlink="http://www.w3.org/1999/xlink" x="0px" y="0px"
	 viewBox="0 0 1159 771" style="enable-background:new 0 0 1159 771;" xml:space="preserve">
<style type="text/css">
	.st0{fill:#FFFFFF;}
	.st1{fill:#9153D5;}
	.st2{fill:#864BC5;}
	.st3{clip-path:url(#SVGID_2_);}
	.st4{clip-path:url(#SVGID_4_);}
	.st5{fill:#F8D11D;}
	.st6{fill:#F9A71F;}
	.st7{fill:#EDEBEB;}
	.st8{fill:#FFDD4D;}
	.st9{fill:#DBD2D8;}
	.st10{fill:#3D3936;}
	.st11{fill:#CF424F;}
	.st12{fill:#22201F;}
	.st13{fill:#74584D;}
	.st14{fill:#644D43;}
	.st15{fill:#F8928C;}
	.st16{fill:#E6817A;}
	.st17{fill:#2C57FF;}
	.st18{fill:#F3AEA0;}
	.st19{fill:#F8A399;}
	.st20{fill:#F66B78;}
	.st21{fill:#F44D5F;}
	.st22{fill:#F2D277;}
	.st23{fill:#D3B471;}
	.st24{fill:#DDBA6C;}
	.st25{fill:#E8C672;}
	.st26{opacity:0.35;}
</style>
<g id="Rectangle">
	<rect class="st0" width="1159" height="771"/>
</g>
<g id="background">
	<g>
		<path class="st1" d="M335.35,607.94c-1.72-17.84,4.72-32.53,13.21-35.6c5.45-1.97,10.57,1.27,12.89,3.05
			c0.41-1.48,3.91-13.56,13.06-17.1c4.7-1.81,8.78-0.56,10.46,0.09c6.1,2.37,9.39,8.07,10.37,9.92
			c-3.72-10.55-1.13-22.55,5.15-27.82c4.63-3.88,10.82-3.73,15.99,0.13c3.27-4.32,8.05-5.87,12.33-3.99
			c6.19,2.71,7.81,11.03,7.9,11.54c5.5-7.66,14.12-9.56,20.95-4.74c6.39,4.51,10.03,14.06,9.03,23.84
			c8.06-7.92,19.08-7.58,26.55,0.63c7.96,8.75,10.04,24.4,4.65,36.71C443.72,605.71,389.53,606.82,335.35,607.94z"/>
	</g>
	<g>
		<path class="st1" d="M658.24,606.18c-1.13-10.93,3.08-19.93,8.66-21.8c3.57-1.2,6.93,0.78,8.46,1.87
			c0.27-0.91,2.56-8.31,8.56-10.47c3.08-1.11,5.76-0.34,6.86,0.06c4,1.45,6.16,4.95,6.81,6.08c-2.44-6.46-0.75-13.81,3.37-17.04
			c3.04-2.38,7.1-2.28,10.49,0.09c2.14-2.64,5.28-3.59,8.09-2.44c4.07,1.66,5.13,6.76,5.19,7.07c3.61-4.69,9.26-5.85,13.75-2.9
			c4.2,2.76,6.59,8.61,5.93,14.61c5.29-4.85,12.52-4.64,17.43,0.39c5.23,5.36,6.6,14.95,3.06,22.49
			C729.35,604.85,693.8,605.52,658.24,606.18z"/>
	</g>
	<g>
		<path class="st1" d="M845.83,609.05H325.39c-1.75,0-3.17-1.42-3.17-3.17v-2.71c0-1.75,1.42-3.17,3.17-3.17h520.44
			c1.75,0,3.17,1.42,3.17,3.17v2.71C849,607.63,847.58,609.05,845.83,609.05z"/>
	</g>
	<g>
		<g>
			
				<rect x="344.87" y="512.56" transform="matrix(0.7769 -0.6297 0.6297 0.7769 -271.6723 340.9107)" class="st2" width="0.59" height="82.41"/>
		</g>
		<g>
			<g>
				
					<ellipse transform="matrix(0.7066 -0.7076 0.7076 0.7066 -270.5067 364.7475)" class="st1" cx="304.6" cy="508.58" rx="10.34" ry="21.2"/>
			</g>
			<g>
				
					<rect x="313.82" y="501" transform="matrix(0.731 -0.6824 0.6824 0.731 -268.3478 353.4684)" class="st2" width="0.59" height="32.14"/>
			</g>
			<g>
				
					<rect x="312.3" y="514.74" transform="matrix(0.0651 -0.9979 0.9979 0.0651 -225.5474 797.0122)" class="st2" width="0.59" height="8.28"/>
			</g>
			<g>
				
					<rect x="302" y="504.57" transform="matrix(0.0651 -0.9979 0.9979 0.0651 -225.0211 777.2273)" class="st2" width="0.59" height="8.28"/>
			</g>
			<g>
				
					<rect x="307.64" y="509.3" transform="matrix(0.0699 -0.9976 0.9976 0.0699 -217.6608 785.7429)" class="st2" width="9.81" height="0.59"/>
			</g>
		</g>
		<g>
			<g>
				<path class="st1" d="M343.49,493.54c0.97,1.26,7.64,10.25,3.89,22.26c-3.76,12.01-14.93,17.4-16.53,18.14
					c-0.97-1.26-7.64-10.25-3.89-22.26C330.72,499.68,341.89,494.28,343.49,493.54z"/>
			</g>
			<g>
				<polygon class="st2" points="330.36,535.27 329.81,535.05 332.36,528.49 339.2,510.92 339.75,511.13 				"/>
			</g>
			<g>
				
					<rect x="331.06" y="521.27" transform="matrix(0.9274 -0.374 0.374 0.9274 -172.4724 162.0792)" class="st2" width="0.59" height="8.28"/>
			</g>
			<g>
				<polygon class="st2" points="337.33,515.66 334.24,507.99 334.78,507.77 337.88,515.45 				"/>
			</g>
			<g>
				
					<rect x="334.79" y="521.04" transform="matrix(0.9292 -0.3697 0.3697 0.9292 -168.6702 162.5211)" class="st2" width="9.81" height="0.59"/>
			</g>
		</g>
		<g>
			<g>
				<path class="st1" d="M289.06,545.32c1.21,1.04,9.86,8.15,22.04,4.99c12.18-3.15,18.12-14.04,18.94-15.61
					c-1.21-1.04-9.86-8.15-22.04-4.99C295.82,532.87,289.88,543.76,289.06,545.32z"/>
			</g>
			<g>
				<polygon class="st2" points="306.81,542.46 306.62,541.91 329.71,534.23 329.88,534.79 329.69,534.85 				"/>
			</g>
			<g>
				
					<rect x="321.19" y="530.65" transform="matrix(0.4199 -0.9076 0.9076 0.4199 -298.8627 602.0397)" class="st2" width="0.59" height="8.28"/>
			</g>
			<g>
				
					<rect x="307.29" y="534.67" transform="matrix(0.4199 -0.9076 0.9076 0.4199 -310.5725 591.7441)" class="st2" width="0.59" height="8.28"/>
			</g>
			<g>
				<polygon class="st2" points="315.24,547.51 314.71,547.26 318.77,538.34 319.31,538.58 				"/>
			</g>
		</g>
		<g>
			<g>
				<path class="st1" d="M363.64,507.04c1.17,1.51,9.14,12.26,4.65,26.61c-4.49,14.35-17.85,20.8-19.76,21.68
					c-1.17-1.51-9.14-12.26-4.65-26.61C348.37,514.37,361.73,507.93,363.64,507.04z"/>
			</g>
			<g>
				
					<rect x="337.75" y="541.77" transform="matrix(0.3631 -0.9318 0.9318 0.3631 -280.3674 674.5806)" class="st2" width="30.96" height="1.17"/>
			</g>
			<g>
				
					<rect x="348.54" y="540.18" transform="matrix(0.9274 -0.374 0.374 0.9274 -178.5455 170.1411)" class="st2" width="1.17" height="9.9"/>
			</g>
			<g>
				
					<rect x="354.16" y="523.82" transform="matrix(0.9274 -0.374 0.374 0.9274 -172.0015 171.0328)" class="st2" width="1.17" height="9.9"/>
			</g>
			<g>
				
					<rect x="353.24" y="539.68" transform="matrix(0.9295 -0.3689 0.3689 0.9295 -173.9859 170.5939)" class="st2" width="11.72" height="1.17"/>
			</g>
		</g>
		<g>
			<g>
				<path class="st1" d="M298.57,568.94c1.45,1.24,11.78,9.74,26.34,5.97c14.56-3.77,21.66-16.78,22.64-18.65
					c-1.45-1.24-11.78-9.74-26.34-5.97C306.65,554.05,299.55,567.07,298.57,568.94z"/>
			</g>
			<g>
				<polygon class="st2" points="319.87,565.75 319.5,564.63 347.08,555.45 347.45,556.56 341.25,558.63 				"/>
			</g>
			<g>
				
					<rect x="336.75" y="551.4" transform="matrix(0.4199 -0.9076 0.9076 0.4199 -309.2366 628.8858)" class="st2" width="1.17" height="9.9"/>
			</g>
			<g>
				
					<rect x="320.13" y="556.2" transform="matrix(0.4199 -0.9076 0.9076 0.4199 -323.2334 616.5789)" class="st2" width="1.17" height="9.9"/>
			</g>
			<g>
				
					<rect x="326.12" y="565.48" transform="matrix(0.4147 -0.91 0.91 0.4147 -320.7863 633.4335)" class="st2" width="11.72" height="1.17"/>
			</g>
		</g>
	</g>
</g>
<g id="taxi_1_">
	<defs>
		<rect id="SVGID_1_" width="1159" height="771"/>
	</defs>
	<clipPath id="SVGID_2_">
		<use xlink:href="#SVGID_1_"  style="overflow:visible;"/>
	</clipPath>
	<g id="taxi" class="st3">
		<defs>
			<rect id="SVGID_3_" x="415" y="267.09" width="429" height="376.77"/>
		</defs>
		<clipPath id="SVGID_4_">
			<use xlink:href="#SVGID_3_"  style="overflow:visible;"/>
		</clipPath>
		<g class="st4">
			<g>
				<path class="st5" d="M441.6,485.68l3.9,21.46l0.91,4.96l1.94,10.69l11.81,6.75l67.47,16.87l21.93,1.69
					c0,0,13.49-62.41,45.54-35.42c32.05,26.99,30.36,35.42,30.36,35.42l25.3,1.69l340.73,8.43l32.05-11.81
					c0,0,3.37-57.35,43.86-33.74c40.48,23.62,26.99,37.11,26.99,37.11l32.05,8.43l63.47-16.24l9.06-2.31v-26.99l3.37-3.37
					l-3.37-18.55l-3.37-10.12c0,0-3.37-13.49-11.81-28.68c0,0-1.69-10.12-69.16-25.3c-67.47-15.18-99.52-16.87-99.52-16.87
					s-1.69-0.81-4.71-2.26h-0.02c-3.26-1.57-8.05-3.85-13.92-6.63c-30.58-14.44-90.56-42.1-115.85-49.17
					c-1.38-0.39-2.67-0.73-3.83-0.98c-71.28-15.84-126.34-12.5-212.54-5.06c-15.75,1.37-30.35,3.22-46.39,7.46
					c-3.04,0.79-6.12,1.69-9.28,2.67c-5.89,1.82-16.83,5.5-55.66,23.62c-18.98,8.86-34.61,16.5-45.54,21.93
					c-0.4,0.07-0.79,0.13-1.2,0.22c-15.33,2.73-30.7,5.47-46.03,8.21l-1.53,11.54l-4.99,37.43l-0.22,1.64L441.6,485.68z"/>
			</g>
			<g>
				<polygon class="st6" points="1161.86,453.64 1126.44,453.64 1138.25,480.62 1175.36,477.25 				"/>
			</g>
			<g>
				<path class="st7" d="M595.1,386.16c2.14,4.62,6.19,11.82,13.49,18.55c5.55,5.11,11.1,8.23,15.18,10.12
					c43.86,1.32,87.71,2.63,131.57,3.95c11.44,0.34,22.86,0.69,34.29,1.03c57.17,1.72,114.33,3.42,171.5,5.14
					c-41.41-41.02-80.68-56.14-102.89-62.41c-24.93-7.05-50.55-9.23-80.97-11.81c-19.63-1.67-37.13-3.09-60.72-1.69
					c-18.71,1.11-41.46,2.61-69.16,11.81C624.84,368.35,607.3,378.19,595.1,386.16z"/>
			</g>
			<g>
				<path class="st7" d="M868.36,355.8c21.93,10.41,38.8,18.42,50.18,23.83c11.39,5.41,17.29,8.21,17.29,8.21
					s21.03,9.34,60.72,26.99c0.81-0.44,1.64-0.86,2.45-1.3l11.39-6.02c-3.26-1.57-8.05-3.85-13.92-6.63
					c-30.58-14.44-90.56-42.1-115.85-49.17L868.36,355.8z"/>
			</g>
			<g>
				<path class="st8" d="M996.47,400.89l2.53,12.65l0.93,4.67c97.83,13.49,161.93,35.42,161.93,35.42l25.3,38.8l2.75,49.54
					l9.06-2.31v-26.99l3.37-3.37l-3.37-18.55l-3.37-10.12c0,0-3.37-13.49-11.81-28.68c0,0-1.69-10.12-69.16-25.3
					c-67.47-15.18-99.52-16.87-99.52-16.87s-1.69-0.81-4.71-2.26h-0.02C1007.13,405.95,1002.34,403.67,996.47,400.89z"/>
			</g>
			<g>
				<path class="st8" d="M1126.35,454.47c-35.57-3.97-71.88-7.38-107.92-10.12c-96.13-7.31-168.02-8.1-276.83-9.31
					c-21.31-0.24-44.13-0.49-68.91-0.81c-64.4-0.83-130.24-1.96-195.67-3.37l0.04-1.69c65.43,1.41,131.26,2.54,195.66,3.37
					c24.79,0.32,47.6,0.57,68.91,0.81c108.84,1.21,180.75,2,276.93,9.32c36.06,2.74,72.4,6.15,107.98,10.12L1126.35,454.47z"/>
			</g>
			<g>
				<path class="st9" d="M755.35,350.86v67.93c11.44,0.34,22.86,0.69,34.29,1.03l-18.18-68.8L755.35,350.86z"/>
			</g>
			<g>
				
					<rect x="649.12" y="360.13" transform="matrix(0.9997 -0.0256 0.0256 0.9997 -9.7176 16.7651)" class="st9" width="1.69" height="55.62"/>
			</g>
			<g>
				<path class="st10" d="M968.71,541.51l-1.65-0.33c0.02-0.09,1.73-9.14,5.05-60.62c3.26-50.59-11.01-54.75-11.16-54.79l0.38-1.64
					c0.65,0.14,15.85,4.13,12.47,56.54C970.45,532.43,968.78,541.17,968.71,541.51z"/>
			</g>
			<g>
				<path class="st10" d="M781.49,536.34l-1.68-0.1c4.99-88.17-8.22-117.38-8.36-117.67l1.53-0.72
					C773.53,419.03,786.51,447.74,781.49,536.34z"/>
			</g>
			<g>
				<path class="st10" d="M989.8,542.19c-12.41-0.14-303.93-3.44-314.11-8.52c-10.37-5.19-59.35-81.23-74.58-108.3
					c-15.23-27.07-11.97-34.23-11.83-34.53l1.52,0.73c-0.03,0.07-2.79,7.08,11.78,32.97c15.49,27.54,64.13,102.75,73.86,107.61
					c7.87,3.93,208.43,7.18,313.38,8.34L989.8,542.19z"/>
			</g>
			<g>
				<polygon class="st6" points="453.63,458.75 468.59,462.07 482.04,429.77 458.62,421.32 				"/>
			</g>
			<g>
				<polygon class="st11" points="445.5,507.14 446.41,512.1 477.03,514.36 468.59,510.99 				"/>
			</g>
			<g>
				<path class="st7" d="M506.19,401.56c0.27,0.19,0.52,0.34,0.78,0.49c4.84,2.8,11.1,0.42,13.92-0.71
					c10.14-4.03,45.31-19.2,92.77-40.48c1.38-2.53,2.8-5.13,4.22-7.73c-3.04,0.79-6.12,1.69-9.28,2.67
					c-5.89,1.82-16.83,5.5-55.66,23.62c-18.98,8.86-34.61,16.5-45.54,21.93C506.98,401.41,506.6,401.48,506.19,401.56z"/>
			</g>
			<g>
				<path class="st9" d="M986.72,557.37h139.43c-3.26-42.09-33.23-75.06-69.72-75.06C1019.95,482.31,989.98,515.29,986.72,557.37z"
					/>
			</g>
			<g>
				<path class="st9" d="M514.42,557.37h139.43c-3.26-42.09-33.23-75.06-69.72-75.06S517.68,515.29,514.42,557.37z"/>
			</g>
			<g>
				
					<ellipse transform="matrix(0.9732 -0.2298 0.2298 0.9732 -99.7522 258.0182)" class="st10" cx="1058.13" cy="557.37" rx="51.45" ry="51.45"/>
			</g>
			<g>
				<polygon class="st6" points="1198.97,534.25 1198.97,512.67 1202.03,509.62 1151.74,510.99 1143.31,532.91 				"/>
			</g>
			<g>
				
					<ellipse transform="matrix(0.9732 -0.2298 0.2298 0.9732 -99.9686 257.8471)" class="st9" cx="1057.28" cy="558.22" rx="32.89" ry="32.89"/>
			</g>
			<g>
				
					<ellipse transform="matrix(0.7071 -0.7071 0.7071 0.7071 -223.0322 576.2987)" class="st10" cx="584.14" cy="557.37" rx="51.45" ry="51.45"/>
			</g>
			<g>
				
					<ellipse transform="matrix(0.836 -0.5487 0.5487 0.836 -210.6386 411.5593)" class="st9" cx="583.29" cy="558.22" rx="32.89" ry="32.89"/>
			</g>
			<g>
				
					<rect x="994.03" y="449.42" transform="matrix(-1 -1.224647e-16 1.224647e-16 -1 1999.8646 910.6443)" class="st12" width="11.81" height="11.81"/>
			</g>
			<g>
				
					<rect x="967.04" y="449.42" transform="matrix(-1 -1.224647e-16 1.224647e-16 -1 1945.8872 910.6443)" class="st12" width="11.81" height="11.81"/>
			</g>
			<g>
				
					<rect x="940.05" y="449.42" transform="matrix(-1 -1.224647e-16 1.224647e-16 -1 1891.9099 910.6443)" class="st12" width="11.81" height="11.81"/>
			</g>
			<g>
				
					<rect x="913.06" y="449.42" transform="matrix(-1 -1.224647e-16 1.224647e-16 -1 1837.9325 910.6443)" class="st12" width="11.81" height="11.81"/>
			</g>
			<g>
				
					<rect x="886.07" y="449.42" transform="matrix(-1 -1.224647e-16 1.224647e-16 -1 1783.9551 910.6443)" class="st12" width="11.81" height="11.81"/>
			</g>
			<g>
				
					<rect x="859.09" y="449.42" transform="matrix(-1 -1.224647e-16 1.224647e-16 -1 1729.9778 910.6443)" class="st12" width="11.81" height="11.81"/>
			</g>
			<g>
				
					<rect x="832.1" y="449.42" transform="matrix(-1 -1.224647e-16 1.224647e-16 -1 1676.0004 910.6443)" class="st12" width="11.81" height="11.81"/>
			</g>
			<g>
				
					<rect x="805.11" y="449.42" transform="matrix(-1 -1.224647e-16 1.224647e-16 -1 1622.0231 910.6443)" class="st12" width="11.81" height="11.81"/>
			</g>
			<g>
				
					<rect x="778.12" y="449.42" transform="matrix(-1 -1.224647e-16 1.224647e-16 -1 1568.0457 910.6443)" class="st12" width="11.81" height="11.81"/>
			</g>
			<g>
				
					<rect x="751.13" y="449.42" transform="matrix(-1 -1.224647e-16 1.224647e-16 -1 1514.0684 910.6443)" class="st12" width="11.81" height="11.81"/>
			</g>
			<g>
				
					<rect x="724.14" y="449.42" transform="matrix(-1 -1.224647e-16 1.224647e-16 -1 1460.0909 910.6443)" class="st12" width="11.81" height="11.81"/>
			</g>
			<g>
				
					<rect x="697.15" y="449.42" transform="matrix(-1 -1.224647e-16 1.224647e-16 -1 1406.1136 910.6443)" class="st12" width="11.81" height="11.81"/>
			</g>
			<g>
				
					<rect x="670.16" y="449.42" transform="matrix(-1 -1.224647e-16 1.224647e-16 -1 1352.1362 910.6443)" class="st12" width="11.81" height="11.81"/>
			</g>
			<g>
				
					<rect x="643.18" y="449.42" transform="matrix(-1 -1.224647e-16 1.224647e-16 -1 1298.1589 910.6443)" class="st12" width="11.81" height="11.81"/>
			</g>
			<g>
				
					<rect x="616.19" y="449.42" transform="matrix(-1 -1.224647e-16 1.224647e-16 -1 1244.1816 910.6443)" class="st12" width="11.81" height="11.81"/>
			</g>
			<g>
				
					<rect x="980.53" y="462.91" transform="matrix(-1 -1.224647e-16 1.224647e-16 -1 1972.8759 937.633)" class="st12" width="11.81" height="11.81"/>
			</g>
			<g>
				
					<rect x="953.55" y="462.91" transform="matrix(-1 -1.224647e-16 1.224647e-16 -1 1918.8984 937.633)" class="st12" width="11.81" height="11.81"/>
			</g>
			<g>
				
					<rect x="926.56" y="462.91" transform="matrix(-1 -1.224647e-16 1.224647e-16 -1 1864.9211 937.633)" class="st12" width="11.81" height="11.81"/>
			</g>
			<g>
				
					<rect x="899.57" y="462.91" transform="matrix(-1 -1.224647e-16 1.224647e-16 -1 1810.9437 937.633)" class="st12" width="11.81" height="11.81"/>
			</g>
			<g>
				
					<rect x="872.58" y="462.91" transform="matrix(-1 -1.224647e-16 1.224647e-16 -1 1756.9664 937.633)" class="st12" width="11.81" height="11.81"/>
			</g>
			<g>
				
					<rect x="845.59" y="462.91" transform="matrix(-1 -1.224647e-16 1.224647e-16 -1 1702.989 937.633)" class="st12" width="11.81" height="11.81"/>
			</g>
			<g>
				
					<rect x="818.6" y="462.91" transform="matrix(-1 -1.224647e-16 1.224647e-16 -1 1649.0117 937.633)" class="st12" width="11.81" height="11.81"/>
			</g>
			<g>
				
					<rect x="791.61" y="462.91" transform="matrix(-1 -1.224647e-16 1.224647e-16 -1 1595.0344 937.633)" class="st12" width="11.81" height="11.81"/>
			</g>
			<g>
				
					<rect x="764.62" y="462.91" transform="matrix(-1 -1.224647e-16 1.224647e-16 -1 1541.057 937.633)" class="st12" width="11.81" height="11.81"/>
			</g>
			<g>
				
					<rect x="737.64" y="462.91" transform="matrix(-1 -1.224647e-16 1.224647e-16 -1 1487.0797 937.633)" class="st12" width="11.81" height="11.81"/>
			</g>
			<g>
				
					<rect x="710.65" y="462.91" transform="matrix(-1 -1.224647e-16 1.224647e-16 -1 1433.1023 937.633)" class="st12" width="11.81" height="11.81"/>
			</g>
			<g>
				
					<rect x="683.66" y="462.91" transform="matrix(-1 -1.224647e-16 1.224647e-16 -1 1379.125 937.633)" class="st12" width="11.81" height="11.81"/>
			</g>
			<g>
				
					<rect x="656.67" y="462.91" transform="matrix(-1 -1.224647e-16 1.224647e-16 -1 1325.1476 937.633)" class="st12" width="11.81" height="11.81"/>
			</g>
			<g>
				
					<rect x="629.68" y="462.91" transform="matrix(-1 -1.224647e-16 1.224647e-16 -1 1271.1703 937.633)" class="st12" width="11.81" height="11.81"/>
			</g>
			<g>
				
					<rect x="602.69" y="462.91" transform="matrix(-1 -1.224647e-16 1.224647e-16 -1 1217.1929 937.633)" class="st12" width="11.81" height="11.81"/>
			</g>
		</g>
	</g>
</g>
<g id="woman">
	<g>
		<g>
			<path class="st10" d="M553.49,475.88c-3.68,30.07-7.38,60.13-11.06,90.2c-0.33,2.72-0.67,5.45-1,8.17
				c-5.87,0.93-11.76,1.86-17.63,2.78c-0.34-5.44-0.69-10.87-1.03-16.3v-0.01c-1.79-28.49-3.59-56.98-5.39-85.47
				c-0.02-0.41-0.05-0.82-0.07-1.22c-5.26-21.34-10.51-42.69-15.78-64.03c-0.4,1.19-0.78,2.38-1.18,3.57l-0.03,0.1
				c-15.7,47.65-31.4,95.3-47.1,142.95c-1.53,4.64-3.05,9.28-4.58,13.92c-6.19-1.86-12.37-3.71-18.56-5.57
				c0.36-2.78,0.72-5.57,1.09-8.35c2.13-16.39,4.27-32.77,6.39-49.16c5.29-40.67,10.58-81.34,15.88-122.01v-0.02
				c0.72-5.57,1.45-11.15,2.17-16.71c1.39-10.68,2.77-21.35,4.17-32.03c1.28-1.61,2.56-3.2,3.84-4.81
				c4.91-6.13,9.81-12.27,14.72-18.39h51.04c3.54,7.52,7.08,15.04,10.62,22.56c1.41,3,2.82,5.99,4.23,8.99
				c0.69,9.75,1.38,19.5,2.08,29.25C548.68,408.15,551.09,442.02,553.49,475.88z"/>
		</g>
		<g>
			<path class="st12" d="M546.29,374.29l-90.69-5.57c1.39-10.68,2.77-21.35,4.17-32.03c1.28-1.61,2.56-3.2,3.84-4.81l76.37,4.17
				c1.41,3,2.82,5.99,4.23,8.99C544.9,354.79,545.59,364.53,546.29,374.29z"/>
		</g>
		<g>
			<path class="st12" d="M453.83,495.72l-16.29,11.74c5.29-40.67,10.58-81.34,15.88-122.01l11.53,84.33
				C466.33,479.82,462.05,489.8,453.83,495.72z"/>
		</g>
		<g>
			<path class="st12" d="M529.36,488.88l-11.99-13.62c-0.02-0.41-0.05-0.82-0.07-1.22c-5.26-21.34-10.51-42.69-15.78-64.03
				c-0.4,1.19-0.78,2.38-1.18,3.57l3.96-14.71L529.36,488.88z"/>
		</g>
		<g>
			<path class="st12" d="M542.43,566.09c-0.33,2.72-0.67,5.45-1,8.17c-5.87,0.93-11.76,1.86-17.63,2.78
				c-0.34-5.44-0.69-10.87-1.03-16.3L542.43,566.09z"/>
		</g>
		<g>
			<path class="st12" d="M453.21,556.62c-1.53,4.64-3.05,9.28-4.58,13.92c-6.19-1.86-12.37-3.71-18.56-5.57
				c0.36-2.78,0.72-5.57,1.09-8.35H453.21z"/>
		</g>
		<g>
			<path class="st13" d="M518.15,259.74c-13.15,8.4-27.29,5.67-38.6,3.48c-7.02-1.36-18.56-3.75-28.52-13.41
				c-0.74-0.71-1.43-1.43-2.07-2.15c-3.73-4.12-6.08-8.2-7.52-11.18c24.41-33.08,42.46-57.74,51.22-70.96
				c1.18-1.77,4.74-7.39,11.61-11.11c6.17-3.33,16.83-6.12,25.62-2.26c1.86,0.81,3.63,1.92,5.27,3.38c1.74,1.56,3.07,3.31,4.1,5.09
				c0.22,0.37,0.41,0.73,0.59,1.1c2.83,5.62,2.83,11.39,2.8,12.98c-1.79-0.75-3.45-1.04-4.98-1.02c-1.04,0.01-1.82,0.17-1.88,0.18
				c-1.81,0.4-1.69,11.74-0.97,24.55c0.58,10.48,1.56,21.93,2.22,29.18C536.61,230.94,533.97,249.64,518.15,259.74z"/>
		</g>
		<g>
			<path class="st14" d="M454.49,222.84l-0.49-0.63c6.63-5.15,31.69-40.38,31.94-40.73l0.65,0.46
				C485.55,183.4,461.21,217.62,454.49,222.84z"/>
		</g>
		<g>
			<path class="st14" d="M448.09,232.94l-0.33-0.72c12.78-5.77,30.28-35.86,30.45-36.17l0.69,0.4
				C478.18,197.69,461.1,227.06,448.09,232.94z"/>
		</g>
		<g>
			<path class="st14" d="M518.15,259.74c-13.15,8.4-27.29,5.67-38.6,3.48c-7.02-1.36-18.56-3.75-28.52-13.41
				c-0.74-0.71-1.43-1.43-2.07-2.15c9.6-12.78,50.6-68.45,50.6-68.45s19.04,10.2,35.25,19.21c0.58,10.48,1.56,21.93,2.22,29.18
				C536.61,230.94,533.97,249.64,518.15,259.74z"/>
		</g>
		<g>
			<path class="st7" d="M584.11,302.35l-32.35,34.6c-2.51,2.69-5.04,5.39-7.55,8.08c-4.33-3.71-8.66-7.42-12.99-11.14L522,278.06
				c-1.87-11.39-3.76-22.78-5.63-34.17c2.13-3.1,4.27-6.21,6.4-9.31c1.05-1.53,2.1-3.06,3.16-4.59c0.21-0.32,0.44-0.63,0.65-0.95
				c0.7,0.59,1.38,1.19,2.08,1.78c2.31,1.98,4.61,3.95,6.92,5.93c1.33,1.14,2.66,2.28,3.99,3.42c2.85,18.25,5.71,36.52,8.56,54.77
				c0.24,1.54,0.48,3.08,0.72,4.62c1.39-1.51,2.78-3.02,4.18-4.53l0.01-0.01c2.32-2.51,4.63-5.02,6.95-7.53
				C568.03,292.45,576.07,297.4,584.11,302.35z"/>
		</g>
		<g>
			<path class="st9" d="M551.76,336.95c-2.51,2.69-5.04,5.39-7.55,8.08c-4.33-3.71-8.66-7.42-12.99-11.14L522,278.06l0.77-43.48
				l0.09-5.54l3.06,0.95l2.73,0.84l6.27,1.93l0.65,4l10.63,65.82l0.7,4.29L551.76,336.95z"/>
		</g>
		<g>
			<path class="st9" d="M553.03,295.04l-6.12,11.82l-3.43,6.63l2.74-10.9v-0.01l1.92-7.63c0.24,1.54,0.48,3.08,0.72,4.62
				C550.24,298.05,551.63,296.55,553.03,295.04z"/>
		</g>
		<g>
			<path class="st7" d="M547.92,354.32c-26.51,1.21-53.02,2.41-79.53,3.62c-7.52,0.33-15.03,0.68-22.55,1.02
				c2.57-23,5.15-46,7.72-69c2.24-19.99,4.47-39.98,6.71-59.97l11.38-3.36l11.29-3.33h0.02l7.73-2.28l23.29,1.67
				c6.05,3.04,12.11,6.09,18.16,9.13C537.41,272.65,542.66,313.49,547.92,354.32z"/>
		</g>
		<g>
			<path class="st15" d="M489.69,227.37c1.16,1.54,4.72,5.86,11.14,7.86c6.26,1.96,11.51,0.57,13.37-0.03l5.8-38.18l-20.64-6.22
				c-2.16,8.18-4.33,16.37-6.49,24.56C491.8,219.37,490.75,223.37,489.69,227.37z"/>
		</g>
		<g>
			<path class="st16" d="M492.86,215.37l22.87,9.76l4.27-28.1l-20.64-6.22C497.19,198.99,495.02,207.19,492.86,215.37z"/>
		</g>
		<g>
			
				<rect x="538.56" y="183.48" transform="matrix(0.4629 -0.8864 0.8864 0.4629 120.0431 580.5076)" class="st17" width="1.02" height="15.43"/>
		</g>
		<g>
			<path class="st18" d="M502.12,190.29c-0.27,1.8-0.39,3.52-0.42,4.9c-0.04,0.95-0.02,1.74-0.01,2.27c0.03,0.86,0.2,5.29,1.36,8.58
				c2.66,7.58,12.51,14.65,20.28,12.44c2.86-0.82,4.53-2.62,7.4-5.75c0,0,5.39-5.85,8-15.13c0.24-0.85,0.51-1.89,0.51-1.89
				c0.39-1.5,0.77-3.12,1.15-4.87c0.97-4.48,2.06-10.65,2.67-18.12c-1.78-1.57-6.87-5.63-14.32-6.04
				c-10.79-0.6-17.87,6.91-19.37,8.49C503.96,180.9,502.55,187.44,502.12,190.29z"/>
		</g>
		<g>
			<path class="st10" d="M519.69,186.53c-0.58,0.69-0.49,1.73,0.2,2.31c0.69,0.58,1.73,0.49,2.31-0.2c0.58-0.69,0.49-1.73-0.2-2.31
				C521.3,185.75,520.27,185.84,519.69,186.53z"/>
		</g>
		<g>
			<path class="st10" d="M535.62,189.79c-0.58,0.69-0.49,1.73,0.2,2.31c0.69,0.58,1.73,0.49,2.31-0.2c0.58-0.69,0.49-1.73-0.2-2.31
				C537.23,189.01,536.2,189.1,535.62,189.79z"/>
		</g>
		<g>
			<path class="st16" d="M528.24,202.71c-0.38,0-0.75-0.02-1.1-0.06l0.1-1.01c1.14,0.11,3.17,0.13,3.92-0.96
				c0.53-0.76,0.24-1.88-0.13-3.29l-0.13-0.49c-0.7-2.74-1.16-5.65-1.37-8.67l1.01-0.07c0.21,2.95,0.66,5.8,1.34,8.49l0.12,0.48
				c0.42,1.6,0.78,2.98-0.02,4.12C531.2,202.4,529.67,202.71,528.24,202.71z"/>
		</g>
		<g>
			<path class="st13" d="M527.46,181.7c-0.02,0-0.05,0-0.07,0l-9.33-0.87c-0.42-0.04-0.73-0.41-0.69-0.83
				c0.04-0.42,0.42-0.73,0.83-0.69l9.33,0.87c0.42,0.04,0.73,0.41,0.69,0.83C528.18,181.41,527.85,181.7,527.46,181.7z"/>
		</g>
		<g>
			<path class="st13" d="M543.46,184.69c-0.06,0-0.13-0.01-0.19-0.02l-9.08-2.32c-0.41-0.1-0.65-0.52-0.55-0.93
				c0.1-0.41,0.52-0.65,0.93-0.55l9.08,2.32c0.41,0.1,0.65,0.52,0.55,0.93C544.11,184.46,543.8,184.69,543.46,184.69z"/>
		</g>
		<g>
			<path class="st16" d="M527,208.21c-1.54,0-4.28-0.64-7.76-4.14l0.72-0.72c4.81,4.85,7.97,3.72,8.01,3.71l0.38,0.94
				C528.3,208.03,527.82,208.21,527,208.21z"/>
		</g>
		<g>
			<path class="st15" d="M522.53,194.29l-8.21-1.68c-0.37-0.08-0.61-0.44-0.54-0.81l0.11-0.56c0.08-0.37,0.44-0.61,0.81-0.54
				l8.21,1.68c0.37,0.08,0.61,0.44,0.54,0.81l-0.11,0.56C523.27,194.13,522.91,194.37,522.53,194.29z"/>
		</g>
		<g>
			<path class="st15" d="M533.81,195.31l-0.11,0.56c-0.08,0.38,0.16,0.74,0.54,0.82l4.49,0.92c0.17-0.61,0.34-1.24,0.51-1.89
				l-4.61-0.94C534.25,194.69,533.89,194.94,533.81,195.31z"/>
		</g>
		<g>
			<path class="st13" d="M534.25,167.57c-14.58,13.13-24.25,13.49-28.1,13.17c-1.09-0.09-6.41-0.55-6.77-2.42
				c-0.26-1.41,2.47-2.52,5.62-5.16c6.21-5.21,5.77-9.43,9.2-11.52C517.2,159.81,522.82,159.85,534.25,167.57z"/>
		</g>
		<g>
			<path class="st13" d="M532.33,164.3c0,0,0.3,1.01,0.83,2.54c0.14,0.4,0.29,0.84,0.45,1.3c0.58,1.67,1.34,3.71,2.18,5.73
				c1.88,4.53,4.23,9.02,6.18,9.28c4.03,0.53,8.67-12,0.93-19.81c-0.46-0.47-0.91-0.88-1.35-1.23c-0.82-0.69-1.59-1.16-2.29-1.48
				c-2.08-0.95-3.63-0.48-4.72,0.39C532.98,162.26,532.33,164.3,532.33,164.3z"/>
		</g>
		<g>
			<path class="st17" d="M521.26,198.7c-0.54,0-1.08-0.05-1.63-0.17c-4.39-0.9-7.23-5.2-6.34-9.59c0.43-2.13,1.67-3.96,3.48-5.16
				c1.81-1.2,3.98-1.62,6.11-1.18c2.13,0.43,3.96,1.67,5.16,3.48c1.2,1.81,1.62,3.98,1.18,6.11
				C528.43,196.04,525.04,198.7,521.26,198.7z M521.25,184.47c-2.84,0-5.38,1.99-5.97,4.88c-0.67,3.29,1.46,6.52,4.75,7.19
				c3.29,0.67,6.52-1.46,7.19-4.75c0.33-1.6,0.01-3.22-0.89-4.58c-0.9-1.36-2.27-2.29-3.87-2.61
				C522.06,184.51,521.66,184.47,521.25,184.47z"/>
		</g>
		<g>
			<path class="st17" d="M539.18,202.36c-0.54,0-1.08-0.05-1.63-0.17c-4.39-0.9-7.23-5.2-6.34-9.59c0.9-4.39,5.2-7.24,9.59-6.34
				c4.39,0.9,7.23,5.2,6.34,9.59C546.35,199.7,542.96,202.36,539.18,202.36z M539.16,188.13c-1.18,0-2.34,0.35-3.35,1.01
				c-1.36,0.9-2.29,2.27-2.61,3.87c-0.33,1.6-0.01,3.22,0.89,4.58c0.9,1.36,2.27,2.29,3.87,2.61c3.29,0.68,6.52-1.46,7.19-4.75
				c0.67-3.29-1.46-6.52-4.75-7.19C539.99,188.17,539.57,188.13,539.16,188.13z"/>
		</g>
		<g>
			<path class="st17" d="M531.7,192.87c0-0.01-0.12-0.88-0.73-1.16c-0.54-0.25-1.39,0-2.46,0.7l-0.56-0.85
				c1.4-0.93,2.56-1.19,3.46-0.77c1.13,0.52,1.3,1.89,1.31,1.95L531.7,192.87z"/>
		</g>
		<g>
			<path class="st19" d="M501.7,195.19c-0.04,0.95-0.02,1.74-0.01,2.27c0.03,0.86,0.2,5.29,1.36,8.58
				c2.66,7.58,12.51,14.65,20.28,12.44c-23.28-7.87-21.02-24-21.02-24C502.1,194.71,501.9,194.95,501.7,195.19z"/>
		</g>
		<g>
			
				<rect x="508.1" y="175.18" transform="matrix(0.4629 -0.8864 0.8864 0.4629 111.0416 549.0527)" class="st17" width="1.02" height="15.43"/>
		</g>
		<g>
			<path class="st18" d="M508.12,185.68c0,0-2.33-5.49-6.11-5.95c-0.32-0.04-1.46-0.12-2.73,0.44c-2.87,1.25-4.39,4.89-3.87,8.01
				c0.07,0.44,0.57,3.15,3.05,4.87c0.4,0.28,2.05,1.42,3.84,1.24C505.11,194,507.76,190.53,508.12,185.68z"/>
		</g>
		<g>
			<path class="st16" d="M499.53,191.21c-1.32-0.71-2.27-2-2.56-3.44c-0.31-1.57,0.17-3.22,1.36-4.67c0.66-0.8,1.46-1.22,2.41-1.24
				c2.32-0.07,4.62,2.38,4.71,2.49l-0.75,0.69c-0.02-0.02-2.05-2.2-3.94-2.16c-0.64,0.02-1.18,0.3-1.65,0.87
				c-1.27,1.54-1.32,2.93-1.15,3.83c0.23,1.15,0.99,2.18,2.04,2.75L499.53,191.21z"/>
		</g>
		<g>
			<path class="st14" d="M502.73,176.73c-0.14,0-0.28,0-0.42,0l0.02-0.79c10.61,0.25,25.4-8.98,25.55-9.08l0.42,0.67
				C527.69,167.91,513.51,176.73,502.73,176.73z"/>
		</g>
		<g>
			<path class="st14" d="M500.26,175.25c-0.81,0-1.55-0.06-2.22-0.2l0.16-0.78c7.07,1.44,24.55-6.16,24.72-6.24l0.32,0.73
				C522.58,169.06,508.34,175.25,500.26,175.25z"/>
		</g>
		<g>
			<path class="st20" d="M559.87,607.47h-42.12l5.36-11.64l2.5-5.43l0.44,0.01c0.33,3.29,2.01,5.7,3.99,6.02
				c0.19,0.04,1.62,0.28,2.46-0.6c1.23-1.25,0.21-3.64,1.49-4.65c0.43-0.35,0.95-0.38,1.28-0.37c0.39,0.21,0.78,0.42,1.16,0.62
				c1.09,0.58,2.16,1.1,3.17,1.58v0.01c0.14,0.07,0.29,0.12,0.42,0.19c0.3,0.13,0.58,0.27,0.87,0.4c0.36,0.16,0.72,0.33,1.07,0.48
				c0.8,0.35,1.55,0.67,2.27,0.98c0.23,0.09,0.44,0.18,0.66,0.27c0.87,0.35,1.68,0.69,2.42,1.01c0.4,0.17,0.8,0.34,1.17,0.51
				c0.27,0.12,0.53,0.23,0.78,0.35c6.01,2.84,11.71,5.67,12.04,6.39C562.01,605.14,559.87,607.47,559.87,607.47z"/>
		</g>
		<g>
			<path class="st10" d="M517.75,604.36c14.76,0.26,29.52,0.52,44.29,0.78c0.07,0.06,0.74,0.6,0.74,1.55c0,0.1-0.01,0.98-0.74,1.55
				c-14.76,0-29.52,0-44.29,0c-0.11-0.13-0.91-1.04-0.74-2.33C517.12,605.09,517.57,604.55,517.75,604.36z"/>
		</g>
		<g>
			<path class="st20" d="M429.68,588.14c-4.21,6.32-8.43,12.64-12.64,18.96c8.69,0.26,17.38,0.53,26.07,0.79
				c-1.59-6.35-3.18-12.69-4.77-19.04c-0.16-0.19-2.36-2.74-5.5-2.29C431.21,586.79,430.13,587.71,429.68,588.14z"/>
		</g>
		<g>
			<path class="st10" d="M416.69,604.72c8.92,0.26,17.84,0.53,26.76,0.79c0.04,0.06,0.45,0.61,0.45,1.58c0,0.1-0.01,1-0.45,1.58
				c-8.92,0-17.84,0-26.76,0c-0.07-0.13-0.55-1.06-0.45-2.37C416.31,605.46,416.58,604.92,416.69,604.72z"/>
		</g>
		<g>
			<polygon class="st20" points="451.46,567.89 449.18,573 439.71,594.29 425.57,594.29 430.16,563.48 430.36,562.14 			"/>
		</g>
		<g>
			<path class="st20" d="M543.11,569.84l-0.31,2.03l-2.08,13.7l-1.12,7.43v0.01c0,0-0.06,0.17-0.18,0.47v0.01
				c-0.99,2.41-5.96,12.64-16.31,2.33l-0.91-21.73l-0.18-4.26H543.11z"/>
		</g>
		<g>
			<path class="st21" d="M539.6,593.02c0.14,0.07,0.29,0.12,0.42,0.19l-0.6,0.28v0.01l-6.86,3.19l3.86-5.26l4.3-5.85L539.6,593.02
				L539.6,593.02z"/>
		</g>
		<path class="st21" d="M426.04,593.3l14.5,4.32C440.54,597.62,436.59,579.88,426.04,593.3z"/>
		<g>
			<polygon class="st22" points="420.23,484.48 420.16,485.89 418,485.31 418,485.16 			"/>
		</g>
		<g>
			<g>
				<path class="st18" d="M568.34,295.85c3.09-8.97,6.19-17.94,9.28-26.91c5.69-0.53,11.39-1.07,17.08-1.6
					c0.34,1.01,0.67,2.03,1.01,3.04c0,2.7,0,5.4,0,8.1c-0.68,3.38-1.35,6.75-2.03,10.13c-5.05,4.58-10.09,9.16-15.14,13.74
					C575.14,300.18,571.74,298.02,568.34,295.85z"/>
			</g>
			<g>
				<path class="st10" d="M598.32,255.46c-2.53,5.59-5.06,11.17-7.59,16.76c-2.78,6.17-5.58,12.32-8.36,18.49
					c-1.25,2.74-2.48,5.48-3.73,8.22c-6.61-1.5-13.22-3-19.85-4.5l6.28-13.63l6.53-14.18l6.75-14.66
					C585.01,253.13,591.67,254.29,598.32,255.46z"/>
			</g>
			<g>
				<path class="st12" d="M566.08,283.84l6.53-14.18l6.75-14.66c5.92,1.04,11.84,2.07,17.75,3.11c0.4-0.88,0.8-1.77,1.2-2.65
					c-6.65-1.16-13.32-2.33-19.97-3.49l-6.75,14.66l-6.53,14.18l-6.28,13.63c0.73,0.16,1.46,0.33,2.18,0.49L566.08,283.84z"/>
			</g>
			<g>
				<path class="st18" d="M599.82,275.53c-0.48,0.48-0.95,0.95-1.43,1.43l0.39,0.79c0.61,1.22,0.21,2.68-0.91,3.44
					c-0.8,0.53-1.6,1.06-2.39,1.59c1,0.68,1.58,1.81,1.48,2.95c-0.06,0.64-0.32,1.23-0.74,1.71c-0.53,0.62-1.31,1.05-2.2,1.16
					h-17.89c-0.13,0-0.25-0.02-0.37-0.07c-0.38-0.14-0.66-0.52-0.66-0.95v-1.03c0-0.5,0.35-0.92,0.85-1.01l12.66-2.3h0.01l0.09-0.02
					l2.41-0.44h-0.56l-16.91,0.03c-0.42-0.54-0.71-0.91-1-1.29c-0.28-0.35-0.56-0.71-0.94-1.21c0.16-0.64,0.32-1.28,0.49-1.9
					l-0.32-0.16l-1.72-0.86l-0.87-0.44c-0.3-0.17-0.61-0.33-0.91-0.51c-0.43-0.76-0.42-1.57,0-2.03c0.09-0.1,0.26-0.25,0.58-0.33
					c8.04-1.04,16.08-2.09,24.12-3.13l-1.15-0.08l-18.26-1.21c-0.07-0.02-0.65-0.26-0.99-0.72v-0.01c-0.13-0.17-0.22-0.37-0.24-0.6
					c-0.01-0.11,0-0.24,0.04-0.38l1.19-1.19l20.02-1.33c1.23-0.08,2.43,0.41,3.26,1.31c0,0,0.01,0.01,0.01,0.01
					c0.28,0.14,1.01,0.57,1.45,1.46c0.69,1.38,0.09,2.72,0,2.91l1.43,1.43C600.64,273.39,600.64,274.72,599.82,275.53z"/>
			</g>
			<g>
				<path class="st15" d="M592.67,270.38l-0.76,0.51l-18.26-1.21c-0.07-0.02-0.65-0.26-0.99-0.72v-0.01L592.67,270.38z"/>
			</g>
			<g>
				<polygon class="st15" points="590.65,275.44 571.88,278.26 570.15,277.4 				"/>
			</g>
			<g>
				<path class="st15" d="M591.66,282.53l-1.08,0.25h-0.01l-16.91,0.03c-0.42-0.54-0.71-0.91-1-1.29L591.66,282.53z"/>
			</g>
			<g>
				<path class="st15" d="M596.23,287.44c-0.53,0.62-1.31,1.05-2.2,1.16h-17.89c-0.13,0-0.25-0.02-0.37-0.07L596.23,287.44z"/>
			</g>
		</g>
		<g>
			<path class="st7" d="M482.96,229.04l6.5-10.21l30.15,6.69l0.39,13.1C519.99,238.62,495.95,242.03,482.96,229.04z"/>
		</g>
		<g>
			<path class="st9" d="M474.52,272.66l-6.12,85.27c-7.52,0.33-15.03,0.68-22.55,1.02c2.57-23,5.15-46,7.72-69
				C461.45,283.06,474.52,272.66,474.52,272.66z"/>
		</g>
		<g>
			<polygon class="st15" points="426.17,358.96 428.8,368.52 424.56,374.73 423.57,372.64 423.57,366.77 420.85,358.03 			"/>
		</g>
		<g>
			<g>
				<g>
					<g>
						<g>
							<g>
								<path class="st10" d="M403.05,397.5c-0.81-5.62-1.02-11.23-0.61-16.7c0.41-5.56,1.18-7.68,2.28-9.29
									c3.39-4.96,9.5-5.92,11.97-6.1c5.16-0.37,11.67,1.34,14.59,6.02c1.23,1.97,1.29,3.58,1.44,7.47
									c0.04,1.07,0.09,2.28,0.16,3.74c0.24,4.46,0.64,8.91,1.21,13.25l-1.23,0.16c-0.57-4.37-0.98-8.86-1.22-13.35
									c-0.08-1.47-0.12-2.69-0.17-3.76c-0.14-3.76-0.2-5.17-1.25-6.86c-2.65-4.24-8.66-5.79-13.45-5.44
									c-2.29,0.17-7.95,1.04-11.04,5.56c-0.81,1.18-1.63,2.82-2.06,8.68c-0.4,5.38-0.19,10.91,0.6,16.43L403.05,397.5z"/>
							</g>
						</g>
					</g>
				</g>
			</g>
			<g>
				<g>
					<g>
						<g>
							<g>
								<path class="st23" d="M375.88,385.86c3.19-0.36,6.46-0.79,9.8-1.31c1.26-0.2,2.5-0.4,3.73-0.61
									c10.59,0.96,21.3,2.01,32.13,3.14c10.4,1.09,20.68,2.23,30.85,3.43c-3.88,4.15-7.75,8.3-11.63,12.45L375.88,385.86z"/>
							</g>
						</g>
					</g>
				</g>
			</g>
			<g>
				<g>
					<g>
						<g>
							<g>
								<path class="st24" d="M444.79,393.05c1.1-0.04,2.67-0.22,4.42-0.87c1.34-0.5,2.4-1.13,3.17-1.67
									c1.89,30.86,3.78,61.72,5.68,92.58c0,0-11.64-0.21-15.24,8.74c-28.13-2.93-56.27-5.87-84.4-8.8
									c5.82-32.39,11.64-64.77,17.46-97.16c2.12,0.58,4.29,1.13,6.49,1.68c0,0,7.86,1.93,14.66,3.2
									C404.6,392.14,421.93,393.49,444.79,393.05z"/>
							</g>
						</g>
					</g>
				</g>
			</g>
			<g>
				<g>
					<g>
						<g>
							<g>
								<polygon class="st22" points="444.79,393.04 442.82,491.83 433.49,490.85 358.42,483.02 375.88,385.86 376.24,385.9 
																	"/>
							</g>
						</g>
					</g>
				</g>
			</g>
			<g>
				<g>
					<g>
						<g>
							<g>
								<path class="st10" d="M398.53,395.96c0-5.67,0.59-11.26,1.76-16.62c1.2-5.45,2.25-7.44,3.57-8.88
									c4.06-4.43,10.25-4.51,12.72-4.34c5.16,0.36,11.36,2.98,13.59,8.03c0.94,2.12,0.77,3.72,0.36,7.6
									c-0.11,1.06-0.24,2.27-0.37,3.73c-0.4,4.44-0.63,8.92-0.68,13.29l-1.24-0.02c0.05-4.41,0.28-8.91,0.69-13.39
									c0.13-1.47,0.26-2.68,0.37-3.75c0.39-3.75,0.54-5.15-0.26-6.97c-2.02-4.57-7.75-6.96-12.54-7.3
									c-2.29-0.16-8.02-0.1-11.71,3.94c-0.97,1.05-2.02,2.56-3.27,8.3c-1.16,5.27-1.74,10.77-1.73,16.35L398.53,395.96z"/>
							</g>
						</g>
					</g>
				</g>
			</g>
			<g>
				<path class="st25" d="M433.49,490.85l-75.07-7.83l17.46-97.16l0.36,0.04v45.91c0,17.96,9.99,34.43,25.92,42.73L433.49,490.85z"
					/>
			</g>
		</g>
		<g>
			<path class="st18" d="M427.28,348.75c-0.31,5.87-0.62,11.76-0.93,17.63l-1.19,4.46l-2.52,9.46l-1.86,0.93l-0.93-0.93v-7.42
				l-1.86,8.35h-3.71l-0.93-0.93l-0.93,0.93l-2.78-0.93v-5.57l-0.93,4.64h-2.78l-1.86-11.14c0.11-0.16,0.23-0.31,0.35-0.46
				c2.38-3.19,4.79-6.38,7.18-9.58c0.27-0.36,0.54-0.73,0.82-1.1c0.09-0.2,0.19-0.42,0.28-0.62c1.46-3.2,2.9-6.38,4.36-9.59
				C420.48,347.52,423.88,348.13,427.28,348.75z"/>
		</g>
		<g class="st26">
			<path class="st15" d="M425.17,370.85l-2.52,9.46l-1.86,0.93l-0.93-0.93v-7.42l-1.86,8.35h-3.71l-0.93-0.93l-0.93,0.93l-2.78-0.93
				v-5.57l-0.93,4.64h-2.78l-1.86-11.14c0.11-0.16,0.23-0.31,0.35-0.46L425.17,370.85z"/>
		</g>
		<g>
			<path class="st7" d="M477.9,224.95c-5.74,1.67-11.47,3.34-17.21,5.02c-10.38,20.76-20.71,42.61-30.87,65.54
				c-8.61,19.44-16.55,38.45-23.88,56.95c9.59,2.47,19.18,4.95,28.77,7.42c7.25-15.08,14.5-30.16,21.74-45.24l29.19-67.82
				C483.06,239.53,480.48,232.24,477.9,224.95z"/>
		</g>
		<g>
			<path class="st15" d="M417.08,357.1l-5.46,1.1c0.27-0.36,0.54-0.73,0.82-1.1c0.09-0.2,0.19-0.42,0.28-0.62L417.08,357.1z"/>
		</g>
		<g>
			<polygon class="st9" points="506.16,229.04 471.65,226.63 482.94,223.3 482.96,223.3 			"/>
		</g>
		<g>
			<path class="st20" d="M489.02,271.73l-0.05-0.93c1.52-0.08,37.27-1.84,42.86,0.02l-0.29,0.88
				C526.11,269.89,489.39,271.71,489.02,271.73z"/>
		</g>
	</g>
	<g id="geolocator">
		<g>
			<g>
				<path class="st21" d="M590.14,186.35c-8.3,0-15.32,5.48-17.63,13.03c-0.52,1.71-0.81,3.53-0.81,5.41c0,2.73,0.79,5.34,0.79,5.34
					c0.68,2.24,1.62,3.79,2.07,4.52c1.97,3.19,7.71,12.21,15.63,24.29l12.61-19.98l1.46-2.32c0.92-1.46,1.84-2.91,2.76-4.37
					c0.26-0.71,0.51-1.43,0.77-2.14c0,0,0.79-1.89,0.79-5.35C608.57,194.61,600.32,186.35,590.14,186.35z M590.08,194.93
					c4.67,0,8.46,3.79,8.46,8.46c0,4.67-3.79,8.46-8.46,8.46s-8.46-3.79-8.46-8.46C581.61,198.72,585.4,194.93,590.08,194.93z"/>
			</g>
		</g>
		<g>
			<g>
				<path class="st11" d="M602.79,218.97l-12.61,19.98c-7.91-12.08-13.66-21.1-15.63-24.29c-0.45-0.74-1.4-2.29-2.07-4.52
					c0,0-0.79-2.61-0.79-5.34c0-1.88,0.28-3.7,0.81-5.41c1.15,7.39,6,24.84,26.1,20.35C600.15,219.39,601.54,219.14,602.79,218.97z"
					/>
			</g>
		</g>
	</g>
</g>
</svg>
